<?xml version="1.0" encoding="UTF-8"?>
<!DOCTYPE svg PUBLIC "-//W3C//DTD SVG 1.1//EN" "http://www.w3.org/Graphics/SVG/1.1/DTD/svg11.dtd">
<!-- Creator: CorelDRAW 2018 (64-Bit) -->
<svg xmlns="http://www.w3.org/2000/svg" xml:space="preserve" width="34px" height="32px" version="1.1" style="shape-rendering:geometricPrecision; text-rendering:geometricPrecision; image-rendering:optimizeQuality; fill-rule:evenodd; clip-rule:evenodd"
viewBox="0 0 34 32.01"
 xmlns:xlink="http://www.w3.org/1999/xlink">
 <defs>
  <style type="text/css">
   <![CDATA[
    .fil0 {fill:#FEFEFE}
   ]]>
  </style>
 </defs>
 <g id="Layer_x0020_1">
  <metadata id="CorelCorpID_0Corel-Layer"/>
  <path class="fil0" d="M28.02 7.51c0.91,0.24 1.69,0.55 2.13,0.9 0.85,-0.35 1.53,-0.65 2.01,-1.22 -1.13,0.37 -2.62,0.35 -4.14,0.32zm-4.48 4.75c-0.51,0.11 -2.39,1.09 -3.15,2.53 0.78,0.76 1.85,1.01 2.78,0.38 1.04,-0.79 1.27,-1.78 0.37,-2.91zm-3.42 12.13c-0.43,1.64 -2.41,3.33 -2.78,4.37 -0.01,0.8 -0.01,2.46 -0.02,3.25 0.8,-2.83 3.19,-4.36 3.41,-6.12 -0.21,-0.41 -0.5,-1.01 -0.61,-1.5zm-0.53 -1.03c-0.54,1.98 -1.46,2.07 -2.25,3.78 0,-1.22 0,-1.39 0,-2.61 0.23,-0.94 0.86,-2.66 1.69,-3.9 -0.01,0.8 0.28,1.74 0.56,2.73zm5.86 -2.02c0.46,0.73 0.93,2.1 1.04,2.95 0.74,0.73 1.02,1.68 1.26,2.65 0.11,-1.51 -0.07,-2.91 -0.62,-4.16 -0.48,-0.58 -1.21,-1.15 -1.68,-1.44zm-2.23 -1.95c-0.76,0.25 -2.37,0.5 -3.31,0.38 0.22,2.24 1.68,5.64 3.53,7.35 -0.68,-1.94 -0.83,-3.8 -0.99,-4.64 1.66,1.62 2.86,4.8 3.52,8.18 0.2,-3.22 0.2,-8.42 -2.75,-11.27zm4.29 -2.49c-0.96,1.26 -2.17,1.76 -3.53,2.27 3.69,2.48 4.35,3.53 5.14,4.71 -0.26,-1.55 -0.54,-3.1 -1.61,-4.51 1.72,0.09 3.56,0.94 5.45,2.06 -1.17,-2.07 -2.69,-3.84 -5.45,-4.53zm1.02 -4.97c1.13,0.29 3.01,1.39 3.81,2.06 -1.37,-0.11 -2.52,0.03 -3.16,0.29 1.94,0.97 3.78,3.07 4.22,4.28 -0.74,-0.68 -3.14,-2.21 -5.57,-2.34 0.61,-0.77 0.97,-2.52 0.7,-4.29zm-0.67 -0.31c-0.31,4.11 -2.74,5.69 -6.59,5.6 -0.12,0.44 -0.62,1.29 -1.33,1.86 3.38,-0.07 6.25,-1.09 7.43,-3.34 0.54,-1.03 0.92,-2.49 0.49,-4.12zm-8.18 -7.47c-0.42,1.68 -2.21,2.65 -2.64,4.28l0 0.02 -0.01 -0.01 0 0.01 0 -0.02c-0.43,-1.63 -2.22,-2.6 -2.64,-4.28 0.48,-1.17 1.29,-1.97 2.64,-1.95 1.36,-0.02 2.17,0.78 2.65,1.95zm3.4 2.61c0.26,-0.8 0.58,-2.03 0.58,-2.81 0.8,-0.85 2.62,-1.7 3.42,-2.12 -1.31,1.37 -3.53,3.78 -4,4.93zm0.11 0.61c1.15,-0.3 2.45,-0.27 3.57,-0.15 1.6,-1.04 2.5,-2.35 3.38,-3.66 -1.93,1.72 -5.55,1.55 -6.95,3.81zm-5.8 2.17c-0.01,-1.93 4.49,-3.92 4.97,-9.54 0.67,2.22 0.99,4.6 -0.07,7.62 -1.48,0.48 -2.84,1.29 -3.74,2.12 -0.43,0.55 -0.95,1.79 -1.16,2.83 0,-0.73 0,-2.29 0,-3.03zm0.79 3.93c0.36,-1.32 2.04,-2.48 3.49,-3.02 2.89,-1.07 7.82,-0.18 12.33,1.39 -2.31,-1.89 -4.7,-3.32 -6.98,-3.77 -2.93,-0.14 -5.63,0.07 -7.91,2.3 -0.52,0.78 -0.89,1.85 -0.93,3.1zm1.07 1.02c-0.09,-0.22 -0.2,-0.75 -0.2,-1.02 0.87,-2.09 3.69,-2.63 5.49,-2.91 -2.92,0.9 -4.87,2.68 -5.29,3.93zm-2.22 7.33c-1.28,-3.26 -2.12,-2.47 -2.79,-4.85 1.23,-0.64 1.8,-1.92 2.01,-2.89 0.26,-0.02 0.57,-0.12 0.77,-0.25 0.2,0.13 0.52,0.23 0.77,0.25 0.21,0.97 0.79,2.25 2.02,2.89 -0.68,2.38 -1.51,1.59 -2.78,4.85zm-11.05 -14.31c-0.91,0.24 -1.69,0.55 -2.13,0.9 -0.85,-0.35 -1.53,-0.65 -2.01,-1.22 1.13,0.37 2.62,0.35 4.14,0.32zm4.48 4.75c0.51,0.11 2.39,1.09 3.15,2.53 -0.78,0.76 -1.85,1.01 -2.78,0.38 -1.04,-0.79 -1.27,-1.78 -0.37,-2.91zm3.42 12.13c0.43,1.64 2.41,3.33 2.78,4.37 0.01,0.8 0.01,2.46 0.02,3.25 -0.8,-2.83 -3.19,-4.36 -3.41,-6.12 0.21,-0.41 0.5,-1.01 0.61,-1.5zm0.53 -1.03c0.54,1.98 1.46,2.07 2.25,3.78 0,-1.22 0,-1.39 0,-2.61 -0.23,-0.94 -0.86,-2.66 -1.69,-3.9 0.01,0.8 -0.28,1.74 -0.56,2.73zm-5.86 -2.02c-0.46,0.73 -0.93,2.1 -1.04,2.95 -0.74,0.73 -1.02,1.68 -1.26,2.65 -0.11,-1.51 0.07,-2.91 0.62,-4.16 0.48,-0.58 1.21,-1.15 1.68,-1.44zm2.23 -1.95c0.76,0.25 2.37,0.5 3.31,0.38 -0.22,2.24 -1.68,5.64 -3.53,7.35 0.68,-1.94 0.83,-3.8 0.99,-4.64 -1.66,1.62 -2.86,4.8 -3.52,8.18 -0.2,-3.22 -0.2,-8.42 2.75,-11.27zm-4.29 -2.49c0.96,1.26 2.17,1.76 3.53,2.27 -3.69,2.48 -4.35,3.53 -5.14,4.71 0.26,-1.55 0.54,-3.1 1.61,-4.51 -1.72,0.09 -3.56,0.94 -5.45,2.06 1.17,-2.07 2.69,-3.84 5.45,-4.53zm-1.02 -4.97c-1.13,0.29 -3.01,1.39 -3.81,2.06 1.37,-0.11 2.52,0.03 3.16,0.29 -1.94,0.97 -3.78,3.07 -4.22,4.28 0.74,-0.68 3.14,-2.21 5.57,-2.34 -0.61,-0.77 -0.97,-2.52 -0.7,-4.29zm0.67 -0.31c0.31,4.11 2.74,5.69 6.59,5.6 0.12,0.44 0.62,1.29 1.33,1.86 -3.38,-0.07 -6.25,-1.09 -7.43,-3.34 -0.54,-1.03 -0.92,-2.49 -0.49,-4.12zm4.78 -4.86c-0.26,-0.8 -0.58,-2.03 -0.58,-2.81 -0.8,-0.85 -2.62,-1.7 -3.42,-2.12 1.31,1.37 3.53,3.78 4,4.93zm-0.11 0.61c-1.15,-0.3 -2.45,-0.27 -3.57,-0.15 -1.6,-1.04 -2.5,-2.35 -3.38,-3.66 1.93,1.72 5.55,1.55 6.95,3.81zm5.8 2.17c0.01,-1.93 -4.49,-3.92 -4.97,-9.54 -0.67,2.22 -0.99,4.6 0.07,7.62 1.48,0.48 2.84,1.29 3.74,2.12 0.43,0.55 0.95,1.79 1.16,2.83 0,-0.73 0,-2.29 0,-3.03zm-0.79 3.93c-0.36,-1.32 -2.04,-2.48 -3.49,-3.02 -2.89,-1.07 -7.82,-0.18 -12.33,1.39 2.31,-1.89 4.7,-3.32 6.98,-3.77 2.93,-0.14 5.63,0.07 7.91,2.3 0.52,0.78 0.89,1.85 0.93,3.1zm-1.07 1.02c0.09,-0.22 0.2,-0.75 0.2,-1.02 -0.87,-2.09 -3.69,-2.63 -5.49,-2.91 2.92,0.9 4.87,2.68 5.29,3.93z"/>
 </g>
</svg>
